<?xml version="1.0" encoding="utf-8"?><!DOCTYPE svg PUBLIC "-//W3C//DTD SVG 1.1//EN" "http://www.w3.org/Graphics/SVG/1.1/DTD/svg11.dtd"><svg version="1.1" xmlns="http://www.w3.org/2000/svg" xmlns:xlink="http://www.w3.org/1999/xlink" width="24" height="24" viewBox="0 0 24 24" data-tags="sidebar"><g fill="#ababab" transform="scale(0.0234375 0.0234375)"><path d="M213.333 85.333c-35.328 0-67.413 14.379-90.496 37.504s-37.504 55.168-37.504 90.496v597.333c0 35.328 14.379 67.413 37.504 90.496s55.168 37.504 90.496 37.504h597.333c35.328 0 67.413-14.379 90.496-37.504s37.504-55.168 37.504-90.496v-597.333c0-35.328-14.379-67.413-37.504-90.496s-55.168-37.504-90.496-37.504zM426.667 853.333v-682.667h384c11.776 0 22.4 4.736 30.165 12.501s12.501 18.389 12.501 30.165v597.333c0 11.776-4.736 22.4-12.501 30.165s-18.389 12.501-30.165 12.501zM341.333 170.667v682.667h-128c-11.776 0-22.4-4.736-30.165-12.501s-12.501-18.389-12.501-30.165v-597.333c0-11.776 4.736-22.4 12.501-30.165s18.389-12.501 30.165-12.501z" /></g></svg>